<svg width="306" height="456" viewBox="0 0 306 456" fill="none" xmlns="http://www.w3.org/2000/svg">
<mask id="path-1-outside-1_26_212" maskUnits="userSpaceOnUse" x="0" y="0" width="306" height="456" fill="black">
<rect fill="white" width="306" height="456"/>
<path fill-rule="evenodd" clip-rule="evenodd" d="M299 449V38.632L260.202 7H7V417.086L46.1436 449H299Z"/>
</mask>
<path fill-rule="evenodd" clip-rule="evenodd" d="M299 449V38.632L260.202 7H7V417.086L46.1436 449H299Z" fill="white"/>
<path d="M299 38.632L303.423 33.2066L306 35.3074V38.632H299ZM299 449H306V456H299V449ZM260.202 7V0H262.694L264.625 1.57464L260.202 7ZM7 7H0V0H7V7ZM7 417.086L2.57671 422.512L0 420.411V417.086H7ZM46.1436 449V456H43.6517L41.7203 454.425L46.1436 449ZM306 38.632V449H292V38.632H306ZM264.625 1.57464L303.423 33.2066L294.577 44.0573L255.779 12.4254L264.625 1.57464ZM7 0H260.202V14H7V0ZM0 417.086V7H14V417.086H0ZM41.7203 454.425L2.57671 422.512L11.4233 411.661L50.5669 443.575L41.7203 454.425ZM299 456H46.1436V442H299V456Z" fill="#6F71C3" fill-opacity="0.5" mask="url(#path-1-outside-1_26_212)"/>
</svg>
