<svg width="396" height="94" viewBox="0 0 396 94" fill="none" xmlns="http://www.w3.org/2000/svg">
<path d="M389 68.9999L198.3 89.5L7.60037 68.9999L37.6004 14.9999L198.3 4.49998L359 14.9999L389 68.9999Z" fill="#6F71C3"/>
<path d="M389.229 71.1279L392.439 70.7828L390.871 67.9605L360.871 13.9605L360.304 12.9402L359.14 12.8641L198.44 2.36423L198.3 2.35511L198.161 2.36423L37.4608 12.8641L36.2962 12.9402L35.7294 13.9605L5.7294 67.9605L4.16141 70.7828L7.37161 71.1279L198.071 91.628L198.3 91.6526L198.529 91.628L389.229 71.1279Z" stroke="#6F71C3" stroke-opacity="0.5" stroke-width="4.28062"/>
<path d="M136.856 59V35.96H158.072V40.216H141.112V45.336H154.744V49.624H141.112V54.744H158.072V59H136.856ZM161.292 59V35.96H165.932L180.076 52.792V35.96H184.332V59H179.692L165.516 42.136V59H161.292ZM196.173 59V40.216H186.765V35.96H209.805V40.216H200.429V59H196.173ZM212.262 59V35.96H233.478V40.216H216.518V45.336H230.15V49.624H216.518V54.744H233.478V59H212.262ZM255.066 59L248.122 50.712H253.658L259.674 57.816V59H255.066ZM236.698 59V35.992H255.258C256.069 35.992 256.816 36.1947 257.498 36.6C258.181 37.0053 258.725 37.5493 259.13 38.232C259.536 38.8933 259.738 39.6293 259.738 40.44V46.648C259.738 47.4587 259.536 48.2053 259.13 48.888C258.725 49.5707 258.181 50.1147 257.498 50.52C256.816 50.904 256.069 51.096 255.258 51.096L240.922 51.128V59H236.698ZM241.306 46.84H255.066C255.173 46.84 255.269 46.808 255.354 46.744C255.44 46.68 255.482 46.5947 255.482 46.488V40.6C255.482 40.4933 255.44 40.408 255.354 40.344C255.269 40.2587 255.173 40.216 255.066 40.216H241.306C241.2 40.216 241.104 40.2587 241.018 40.344C240.954 40.408 240.922 40.4933 240.922 40.6V46.488C240.922 46.5947 240.954 46.68 241.018 46.744C241.104 46.808 241.2 46.84 241.306 46.84Z" fill="white"/>
</svg>
